HIERARCHY
ROOT Character1_Hips
{
  OFFSET 68.1347 93.2673 -157.776
  CHANNELS 6 Xposition Yposition Zposition Zrotation Xrotation Yrotation
  JOINT Character1_Pelvis_box
  {
    OFFSET 0 0.089997 -0.08
    CHANNELS 6 Xposition Yposition Zposition Zrotation Xrotation Yrotation
    End Site
    {
      OFFSET 0 0 0
    }
  }
  JOINT Character1_RightUpLeg
  {
    OFFSET -9.03 -4.63 1.84
    CHANNELS 6 Xposition Yposition Zposition Zrotation Xrotation Yrotation
    JOINT Character1_R_Femur_box
    {
      OFFSET -0.56 -20.96 -1.11
      CHANNELS 6 Xposition Yposition Zposition Zrotation Xrotation Yrotation
      End Site
      {
        OFFSET 0 0 0
      }
    }
    JOINT Character1_RightLeg
    {
      OFFSET -0.92 -39.5 0.13
      CHANNELS 6 Xposition Yposition Zposition Zrotation Xrotation Yrotation
      JOINT Character1_R_Tibia_box
      {
        OFFSET 0.67 -23.69 -2.38
        CHANNELS 6 Xposition Yposition Zposition Zrotation Xrotation Yrotation
        End Site
        {
          OFFSET 0 0 0
        }
      }
      JOINT Character1_RightFoot
      {
        OFFSET 1.95 -46.11 -3.16
        CHANNELS 6 Xposition Yposition Zposition Zrotation Xrotation Yrotation
        End Site
        {
          OFFSET -1.26 -3.73 3.78
        }
      }
    }
  }
  JOINT Character1_LeftUpLeg
  {
    OFFSET 9.03 -4.63 1.84001
    CHANNELS 6 Xposition Yposition Zposition Zrotation Xrotation Yrotation
    JOINT Character1_L_Femur_box
    {
      OFFSET 0.56 -20.96 -1.11
      CHANNELS 6 Xposition Yposition Zposition Zrotation Xrotation Yrotation
      End Site
      {
        OFFSET 0 0 0
      }
    }
    JOINT Character1_LeftLeg
    {
      OFFSET 0.92 -39.5 0.13
      CHANNELS 6 Xposition Yposition Zposition Zrotation Xrotation Yrotation
      JOINT Character1_L_Tibia_box
      {
        OFFSET -0.67 -23.69 -2.38
        CHANNELS 6 Xposition Yposition Zposition Zrotation Xrotation Yrotation
        End Site
        {
          OFFSET 0 0 0
        }
      }
      JOINT Character1_LeftFoot
      {
        OFFSET -1.95 -46.11 -3.16
        CHANNELS 6 Xposition Yposition Zposition Zrotation Xrotation Yrotation
        End Site
        {
          OFFSET 1.26 -3.73 3.78
        }
      }
    }
  }
  JOINT Character1_Spine
  {
    OFFSET 0 8.75 -1.34001
    CHANNELS 6 Xposition Yposition Zposition Zrotation Xrotation Yrotation
    JOINT Character1_Spine_box
    {
      OFFSET 0 5.29 1.34
      CHANNELS 6 Xposition Yposition Zposition Zrotation Xrotation Yrotation
      End Site
      {
        OFFSET 0 0 0
      }
    }
    JOINT Character1_Spine1
    {
      OFFSET 0 10.86 -0.639995
      CHANNELS 6 Xposition Yposition Zposition Zrotation Xrotation Yrotation
      JOINT Character1_Torso_box
      {
        OFFSET 0 13.36 1.13
        CHANNELS 6 Xposition Yposition Zposition Zrotation Xrotation Yrotation
        End Site
        {
          OFFSET 0 0 0
        }
      }
      JOINT Character1_Neck
      {
        OFFSET 0 30.83 0.62
        CHANNELS 6 Xposition Yposition Zposition Zrotation Xrotation Yrotation
        JOINT Character1_Neck_box
        {
          OFFSET 0 4.53 1.86
          CHANNELS 6 Xposition Yposition Zposition Zrotation Xrotation Yrotation
          End Site
          {
            OFFSET 0 0 0
          }
        }
        JOINT Character1_Head
        {
          OFFSET 0 8.07999 3.5
          CHANNELS 6 Xposition Yposition Zposition Zrotation Xrotation Yrotation
          End Site
          {
            OFFSET 0 8.54 2.36
          }
        }
      }
      JOINT Character1_RightShoulder
      {
        OFFSET -6.47 27.74 1.17
        CHANNELS 6 Xposition Yposition Zposition Zrotation Xrotation Yrotation
        JOINT Character1_R_Shoulder_box
        {
          OFFSET -3.34 1.09 -0.1
          CHANNELS 6 Xposition Yposition Zposition Zrotation Xrotation Yrotation
          End Site
          {
            OFFSET 0 0 0
          }
        }
        JOINT Character1_RightArm
        {
          OFFSET -13.48 -1.85001 0.279985
          CHANNELS 6 Xposition Yposition Zposition Zrotation Xrotation Yrotation
          JOINT Character1_R_Arm_box
          {
            OFFSET -15.83 1.72001 1.18
            CHANNELS 6 Xposition Yposition Zposition Zrotation Xrotation Yrotation
            End Site
            {
              OFFSET 0 0 0
            }
          }
          JOINT Character1_RightForeArm
          {
            OFFSET -32.39 2.56983 2.4799
            CHANNELS 6 Xposition Yposition Zposition Zrotation Xrotation Yrotation
            JOINT Character1_R_ForeArm_box
            {
              OFFSET -14.4 0.919997 0.46
              CHANNELS 6 Xposition Yposition Zposition Zrotation Xrotation Yrotation
              End Site
              {
                OFFSET 0 0 0
              }
            }
            JOINT Character1_RightHand
            {
              OFFSET -28.68 0.870001 2.99
              CHANNELS 6 Xposition Yposition Zposition Zrotation Xrotation Yrotation
              End Site
              {
                OFFSET -7.3 -0.92001 0.74
              }
            }
          }
        }
      }
      JOINT Character1_LeftShoulder
      {
        OFFSET 6.47 27.74 1.17
        CHANNELS 6 Xposition Yposition Zposition Zrotation Xrotation Yrotation
        JOINT Character1_L_Shoulder_box
        {
          OFFSET 3.34 1.09 -0.1
          CHANNELS 6 Xposition Yposition Zposition Zrotation Xrotation Yrotation
          End Site
          {
            OFFSET 0 0 0
          }
        }
        JOINT Character1_LeftArm
        {
          OFFSET 13.4801 -1.84999 0.280008
          CHANNELS 6 Xposition Yposition Zposition Zrotation Xrotation Yrotation
          JOINT Character1_L_Arm_box
          {
            OFFSET 15.83 1.72001 1.18
            CHANNELS 6 Xposition Yposition Zposition Zrotation Xrotation Yrotation
            End Site
            {
              OFFSET 0 0 0
            }
          }
          JOINT Character1_LeftForeArm
          {
            OFFSET 32.39 2.56993 2.47999
            CHANNELS 6 Xposition Yposition Zposition Zrotation Xrotation Yrotation
            JOINT Character1_L_ForeArm_box
            {
              OFFSET 14.4 0.919997 0.46
              CHANNELS 6 Xposition Yposition Zposition Zrotation Xrotation Yrotation
              End Site
              {
                OFFSET 0 0 0
              }
            }
            JOINT Character1_LeftHand
            {
              OFFSET 28.68 0.869996 2.98998
              CHANNELS 6 Xposition Yposition Zposition Zrotation Xrotation Yrotation
              End Site
              {
                OFFSET 7.3 -0.92001 0.74
              }
            }
          }
        }
      }
    }
  }
}
MOTION
Frames: 4
Frame Time: 0.00833333
66.5566 95.7008 -59.4709 -8.13658 4.54146 -13.9223 7.10543e-015 0.089997 -0.08 7.95139e-016 0 3.18055e-015 -9.03 -4.63 1.84 1.68882 26.7492 8.0551 -0.56 -20.96 -1.11 178.999 0.985536 179.88 -0.92 -39.5 0.13 4.01475 -0.0857332 7.58504 0.67 -23.69 -2.38 -178 -5.00249 -180 1.95 -46.11 -3.16 -4.3049 0.195242 -0.710951 9.03 -4.63 1.84 16.2211 -30.6728 2.99338 0.56 -20.96 -1.11 1.00072 -0.985536 -0.120339 0.92 -39.5 0.13 -3.09376 15.7742 -2.98305 -0.67 -23.69 -2.38 -2.00003 5.00249 -0 -1.95 -46.11 -3.16 -0.868251 0.488009 13.9383 7.10543e-015 8.75 -1.34 5.88918 5.52948 6.7586 0 5.29 1.34 1.98785e-016 0 3.18055e-015 7.10543e-015 10.86 -0.64 1.00975 0.534755 0.0351452 7.10543e-015 13.36 1.13 -0 -8.11145 -0 1.42109e-014 30.83 0.62 -3.4169 -13.8919 2.04205 0 4.53 1.86 5.57442e-016 13.3025 8.17062e-016 -7.10543e-015 8.07999 3.5 5.75983 -1.50795 2.99483 -6.47 27.74 1.17 6.42679 0.691881 3.87834 -3.34 1.09 -0.1 179.728 0.0460078 -176.853 -13.48 -1.85001 0.28 41.8637 42.3813 28.7894 -15.83 1.72001 1.18 -173.074 72.5861 168.727 -32.39 2.57001 2.48 -30.0176 -18.9296 53.2791 -14.4 0.919997 0.46 -166.737 68.9748 162.665 -28.68 0.870001 2.99 2.08851 -20.3051 0.105622 6.47 27.74 1.17 -4.10241 -0.798393 -2.09596 3.34 1.09 -0.1 0.272227 -0.0460078 3.14706 13.48 -1.85001 0.28 -88.1249 2.59068 14.6831 15.83 1.72001 1.18 -6.92597 -72.5861 -11.273 32.39 2.57001 2.48 4.31623 -1.44659 -13.5485 14.4 0.919997 0.46 -13.2633 -68.9748 -17.3353 28.68 0.870001 2.99 -1.0308 -15.079 -1.50032 
66.5987 95.519 -57.677 -7.99224 4.54524 -14.1923 -7.10543e-015 0.089997 -0.08 7.95139e-016 0 3.18055e-015 -9.03 -4.63 1.84 1.03218 27.608 8.70909 -0.56 -20.96 -1.11 178.999 0.985536 179.88 -0.92 -39.5 0.13 4.01466 -0.0778858 7.6543 0.67 -23.69 -2.38 -178 -5.00249 180 1.95 -46.11 -3.16 -4.18917 1.059 -0.662155 9.03 -4.63 1.84 15.9534 -29.9567 3.40974 0.56 -20.96 -1.11 1.00072 -0.985536 -0.120339 0.92 -39.5 0.13 -2.89073 14.5415 -3.0761 -0.67 -23.69 -2.38 -2.00003 5.00249 -3.19272e-015 -1.95 -46.11 -3.16 -1.0189 1.57943 13.6972 0 8.75 -1.34 5.63432 5.38816 6.89105 -1.42109e-014 5.29 1.34 -5.96354e-016 -1.59028e-015 -1.59028e-015 -1.42109e-014 10.86 -0.64 1.03042 0.605309 0.0742355 0 13.36 1.13 2.78696e-017 -8.11145 1.60635e-015 7.10543e-015 30.83 0.62 -2.78392 -14.3118 2.06004 7.10543e-015 4.53 1.86 0 13.3025 -0 7.10543e-015 8.07999 3.5 4.64012 -1.05147 2.70661 -6.47 27.74 1.17 6.48506 0.666727 3.89296 -3.34 1.09 -0.1 179.728 0.0460078 -176.853 -13.48 -1.85001 0.28 41.7777 42.3627 28.6977 -15.83 1.72001 1.18 -173.074 72.5861 168.727 -32.39 2.57001 2.48 -30.0694 -19.0372 53.4254 -14.4 0.919997 0.46 -166.737 68.9748 162.665 -28.68 0.870001 2.99 2.08772 -20.3969 0.118082 6.47 27.74 1.17 -4.04443 -0.803456 -2.08312 3.34 1.09 -0.1 0.272227 -0.0460078 3.14706 13.48 -1.85001 0.28 -87.852 1.13159 14.77 15.83 1.72001 1.18 -6.92597 -72.5861 -11.273 32.39 2.57001 2.48 4.02063 -1.37139 -13.0705 14.4 0.919997 0.46 -13.2633 -68.9748 -17.3353 28.68 0.870001 2.99 -1.08663 -14.0246 -1.50484 
66.6462 95.312 -55.8559 -7.7373 4.52129 -14.3832 1.42109e-014 0.089997 -0.08 -1.39149e-015 0 -1.59028e-015 -9.03 -4.63 1.84 0.290547 28.4691 9.28043 -0.56 -20.96 -1.11 178.999 0.985536 179.88 -0.92 -39.5 0.13 3.96206 -0.069367 7.71054 0.67 -23.69 -2.38 -178 -5.00249 -180 1.95 -46.11 -3.16 -4.1111 1.98348 -0.47209 9.03 -4.63 1.84 15.5792 -29.4498 4.12773 0.56 -20.96 -1.11 1.00072 -0.985536 -0.120339 0.92 -39.5 0.13 -2.78878 14.0203 -3.15097 -0.67 -23.69 -2.38 -2.00003 5.00249 3.19272e-015 -1.95 -46.11 -3.16 -1.06765 2.87931 13.1109 0 8.75 -1.34 5.22337 5.19254 6.96421 -7.10543e-015 5.29 1.34 -7.95139e-016 3.18055e-015 3.18055e-015 -1.42109e-014 10.86 -0.64 1.12202 0.72024 0.0826236 0 13.36 1.13 3.97569e-016 -8.11145 -0 0 30.83 0.62 -1.9942 -15.0311 2.05513 0 4.53 1.86 -1.88e-016 13.3025 8.17062e-016 7.10543e-015 8.07999 3.5 3.13672 -0.24709 2.28507 -6.47 27.74 1.17 6.56374 0.623954 3.91156 -3.34 1.09 -0.1 179.728 0.0460078 -176.853 -13.48 -1.85001 0.28 41.7632 42.3984 28.4705 -15.83 1.72001 1.18 -173.074 72.5861 168.727 -32.39 2.57001 2.48 -30.1074 -19.1296 53.555 -14.4 0.919997 0.46 -166.737 68.9748 162.665 -28.68 0.870001 2.99 2.08548 -20.5493 0.131197 6.47 27.74 1.17 -3.9606 -0.824121 -2.07817 3.34 1.09 -0.1 0.272227 -0.0460078 3.14706 13.48 -1.85001 0.28 -87.6447 -0.211387 14.8722 15.83 1.72001 1.18 -6.92597 -72.5861 -11.273 32.39 2.57001 2.48 3.79718 -1.3206 -12.707 14.4 0.919997 0.46 -13.2633 -68.9748 -17.3353 28.68 0.870001 2.99 -1.14271 -12.9911 -1.5052 
66.7035 95.0969 -54.0161 -7.42396 4.49096 -14.4813 -7.10543e-015 0.089997 -0.08 5.96354e-016 0 4.77083e-015 -9.03 -4.63 1.84 -0.454774 29.3061 9.75243 -0.56 -20.96 -1.11 178.999 0.985536 179.88 -0.92 -39.5 0.13 3.84968 -0.0645275 7.7622 0.67 -23.69 -2.38 -178 -5.00249 -180 1.95 -46.11 -3.16 -3.99509 3.10116 -0.239711 9.03 -4.63 1.84 15.1112 -29.1273 4.92526 0.56 -20.96 -1.11 1.00072 -0.985536 -0.120339 0.92 -39.5 0.13 -2.72134 14.0461 -3.21797 -0.67 -23.69 -2.38 -2.00003 5.00249 6.38543e-015 -1.95 -46.11 -3.16 -1.03682 4.16381 12.4069 0 8.75 -1.34 4.75046 4.94423 7.00702 -7.10543e-015 5.29 1.34 1.98785e-016 -3.18055e-015 -0 0 10.86 -0.64 1.20903 0.863105 0.07574 0 13.36 1.13 -8.23008e-016 -8.11145 -1.60635e-015 0 30.83 0.62 -1.21788 -15.8118 2.02433 7.10543e-015 4.53 1.86 6.07139e-016 13.3025 8.17062e-016 7.10543e-015 8.07999 3.5 1.66589 0.61241 1.8188 -6.47 27.74 1.17 6.63959 0.574602 3.92489 -3.34 1.09 -0.1 179.728 0.0460078 -176.853 -13.48 -1.85001 0.28 41.9283 42.4443 28.0785 -15.83 1.72001 1.18 -173.074 72.5861 168.727 -32.39 2.57001 2.48 -30.1231 -19.1988 53.6621 -14.4 0.919997 0.46 -166.737 68.9748 162.665 -28.68 0.870001 2.99 2.08167 -20.6807 0.140733 6.47 27.74 1.17 -3.88389 -0.847269 -2.07364 3.34 1.09 -0.1 0.272227 -0.0460078 3.14706 13.48 -1.85001 0.28 -87.417 -1.38345 14.9414 15.83 1.72001 1.18 -6.92597 -72.5861 -11.273 32.39 2.57001 2.48 3.61083 -1.28118 -12.4013 14.4 0.919997 0.46 -13.2633 -68.9748 -17.3353 28.68 0.870001 2.99 -1.19599 -12.0267 -1.50335 
